<svg xmlns="http://www.w3.org/2000/svg" height="1200" width="1600" version="1.1" xmlns:xlink="http://www.w3.org/1999/xlink" xmlns:svgjs="http://svgjs.com/svgjs"><rect fill="#f3ebe9" width="1600" height="1200"></rect><g><path d="M975.8 1011.3V653.4C975.8 631.1 993.9 612.9 1016.3 612.9H1285.8C1308.1 612.9 1326.3 631 1326.3 653.4V1011.3C1326.3 1033.6 1308.2 1051.8 1285.8 1051.8H1016.3C993.9 1051.7 975.8 1033.6 975.8 1011.3Z" fill="#ffc930" opacity="1" stroke-width="4" stroke="none"></path></g><g><path d="M708.9 872.9H1002" stroke="#182f38" stroke-width="4" stroke-linecap="round" stroke-linejoin="round" opacity="1" fill="none"></path><path d="M977.3 909.8C997.96 909.8 1014.7 893.05 1014.7 872.4 1014.7 851.75 997.96 835 977.3 835 956.65 835 939.9 851.75 939.9 872.4 939.9 893.05 956.65 909.8 977.3 909.8Z" fill="#182f38" opacity="1" stroke-width="4" stroke="none"></path></g><g><path d="M792.1 872.9V951.1C792.1 966.8 804.8 979.5 820.5 979.5H975" stroke="#182f38" stroke-width="4" stroke-linecap="round" stroke-linejoin="round" opacity="1" fill="none"></path><path d="M792.6 884.5C799.28 884.5 804.7 879.08 804.7 872.4 804.7 865.72 799.28 860.3 792.6 860.3 785.92 860.3 780.5 865.72 780.5 872.4 780.5 879.08 785.92 884.5 792.6 884.5Z" fill="#ffc930" opacity="1" stroke-width="4" stroke="none"></path></g><g><path d="M452.4 632.2H666.1C688.4 632.2 706.6 650.3 706.6 672.7V886.4C706.6 908.7 688.5 926.9 666.1 926.9H452.4C430.1 926.9 411.9 908.8 411.9 886.4V672.6C411.9 650.3 430 632.2 452.4 632.2Z" fill="#ffc930" opacity="1" stroke-width="4" stroke="none"></path></g><g><path d="M1250.38 812.77H1183.4C1176.81 812.77 1171.54 807.5 1171.54 800.9 1171.54 799.59 1171.8 798 1172.33 796.68L1204.5 709.66C1206.87 703.6 1203.71 696.74 1197.38 694.37 1192.9 692.79 1188.15 693.84 1184.72 697L1043.38 838.35C1038.63 843.1 1038.63 850.48 1043.38 855.23 1045.49 857.34 1048.65 858.65 1051.82 858.65H1118.8C1125.39 858.65 1130.66 863.93 1130.66 870.52 1130.66 871.84 1130.4 873.42 1129.87 874.74L1097.7 961.76C1095.33 967.83 1098.49 974.68 1104.82 977.06 1109.3 978.64 1114.05 977.59 1117.48 974.42L1258.82 833.08C1263.57 828.33 1263.57 820.95 1258.82 816.2 1256.45 814.09 1253.55 812.77 1250.38 812.77Z" fill="#ffffff" opacity="1" stroke-width="4" stroke="none"></path></g><g><path d="M559.25 720.35C592.45 720.35 619.3 747.2 619.3 780.4 619.3 813.6 590.63 840.45 557.51 840.45 524.38 840.45 499.2 813.6 499.2 780.4 499.2 747.2 526.05 720.35 559.25 720.35Z" fill="#ffffff" opacity="1" stroke-width="4" stroke="none"></path><path d="M508.18 748.79H610.33" stroke="#454545" stroke-width="4" stroke-linecap="round" stroke-linejoin="round" opacity="1" fill="none"></path><path d="M499.2 780.4H619.3" stroke="#454545" stroke-width="4" stroke-linecap="round" stroke-linejoin="round" opacity="1" fill="none"></path><path d="M508.26 812.17L610.33 811.93" stroke="#454545" stroke-width="4" stroke-linecap="round" stroke-linejoin="round" opacity="1" fill="none"></path><path d="M557.51 840.45L559.25 720.35" stroke="#454545" stroke-width="4" stroke-linecap="round" stroke-linejoin="round" opacity="1" fill="none"></path><path d="M559.25 720.35C559.25 720.35 481.73 773.73 557.51 840.45" stroke="#454545" stroke-width="4" stroke-linecap="round" stroke-linejoin="round" opacity="1" fill="none"></path><path d="M559.33 720.35C559.33 720.35 634.07 772.14 557.51 840.45" stroke="#454545" stroke-width="4" stroke-linecap="round" stroke-linejoin="round" opacity="1" fill="none"></path></g><g><path d="M1293.7 685.2H1401.5C1423.8 685.2 1423.1 703.6 1423.1 726L1442 810.6V833.5C1442 855.8 1423.9 874 1401.5 874H1293.7C1271.4 874 1253.2 855.9 1253.2 833.5V810.6L1263.6 723.1C1263.7 700.8 1271.4 685.2 1293.7 685.2Z" fill="#182f38" opacity="1" stroke-width="4" stroke="none"></path><path d="M1293.7 662.3H1401.5C1423.8 662.3 1442 680.4 1442 702.8V810.6C1442 832.9 1423.9 851.1 1401.5 851.1H1293.7C1271.4 851.1 1253.2 833 1253.2 810.6V702.7C1253.3 680.4 1271.4 662.3 1293.7 662.3Z" fill="#11ff01" opacity="1" stroke-width="4" stroke="none"></path></g><g><path d="M1286.31 747.33C1308.45 747.33 1300.49 802.94 1319.55 802.94 1334.01 802.94 1328.87 762.43 1347.92 762.43 1384.26 762.43 1371.84 716.77 1409.54 716.77" stroke="#ffffff" stroke-width="4" stroke-linecap="round" opacity="1" fill="none"></path><path d="M1286.08 754.88C1290.25 754.88 1293.63 751.5 1293.63 747.33 1293.63 743.16 1290.25 739.78 1286.08 739.78 1281.91 739.78 1278.53 743.16 1278.53 747.33 1278.53 751.5 1281.91 754.88 1286.08 754.88Z" fill="#ffffff" opacity="1" stroke-width="4" stroke="none"></path><path d="M1347.88 769.93C1352.05 769.93 1355.43 766.55 1355.43 762.38 1355.43 758.21 1352.05 754.83 1347.88 754.83 1343.71 754.83 1340.33 758.21 1340.33 762.38 1340.33 766.55 1343.71 769.93 1347.88 769.93Z" fill="#ffffff" opacity="1" stroke-width="4" stroke="none"></path><path d="M1409.49 724.27C1413.66 724.27 1417.04 720.9 1417.04 716.73 1417.04 712.56 1413.66 709.18 1409.49 709.18 1405.32 709.18 1401.95 712.56 1401.95 716.73 1401.95 720.9 1405.32 724.27 1409.49 724.27Z" fill="#ffffff" opacity="1" stroke-width="4" stroke="none"></path></g><g><path d="M706.68 226.48L764.98 226.48C771.08 226.48 775.99 231.39 775.99 237.49L775.99 410.33C775.99 416.43 771.08 421.34 764.98 421.34L673.23 421.34" stroke="#182f38" stroke-width="4" stroke-linecap="round" stroke-linejoin="round" opacity="1" fill="none"></path><path d="M698.53 226.26C698.53 235.32 705.87 242.66 714.92 242.66 723.98 242.66 731.32 235.32 731.32 226.26 731.32 217.21 723.98 209.87 714.92 209.87 705.87 209.87 698.53 217.21 698.53 226.26Z" fill="#182f38" opacity="1" stroke-width="4" stroke="none"></path><path d="M770.46 373.07C770.46 376 772.84 378.38 775.77 378.38 778.7 378.38 781.07 376 781.07 373.07 781.07 370.14 778.7 367.77 775.77 367.77 772.84 367.77 770.46 370.14 770.46 373.07Z" fill="#182f38" opacity="1" stroke-width="4" stroke="none"></path></g><g><path d="M707 424.4H1005.6C1027.9 424.4 1016.1 443.7 1016.1 466.1L1046.1 739.2V763.5C1046.1 785.8 1028 804 1005.6 804H707C684.7 804 666.5 785.9 666.5 763.5V743.1L683.8 465.4C683.8 443 684.6 424.4 707 424.4Z" fill="#182f38" opacity="1" stroke-width="4" stroke="none"></path><path d="M707 400.1H1005.6C1027.9 400.1 1046.1 418.2 1046.1 440.6V739.2C1046.1 761.5 1028 779.7 1005.6 779.7H707C684.7 779.7 666.5 761.6 666.5 739.2V440.5C666.5 418.2 684.6 400.1 707 400.1Z" fill="#ffffff" opacity="1" stroke-width="4" stroke="none"></path></g><g><path d="M292.97 666.13C276.14 590.65 290.83 499.83 321.55 496.18 350.7 492.67 360.37 565.8 351.56 584.85 344.9 599.24 332.15 584.56 344.97 554.05 356.72 526.19 391.09 469.11 423.32 470.54 455.55 471.97 427.69 529.91 427.69 529.91L554.46 483" stroke="#182f38" stroke-width="4" stroke-linecap="round" stroke-linejoin="round" opacity="1" fill="none"></path></g><g><path d="M1190.11 479.43C1211.84 479.43 1229.47 461.8 1229.47 440.08 1229.47 418.35 1211.84 400.72 1190.11 400.72 1168.39 400.72 1150.76 418.35 1150.76 440.08 1150.76 461.8 1168.39 479.43 1190.11 479.43Z" fill="#ff1100" opacity="1" stroke-width="4" stroke="none"></path></g><g><path d="M206.7 357.5H564.6C586.9 357.5 539.6 378.7 539.6 401.1L605.1 643.2V667.5C605.1 689.8 587 708 564.6 708H206.7C184.4 708 166.2 689.9 166.2 667.5V647.6L199.7 401.1C199.7 378.8 184.4 357.5 206.7 357.5Z" fill="#182f38" opacity="1" stroke-width="4" stroke="none"></path><path d="M206.7 333.2H564.6C586.9 333.2 605.1 351.3 605.1 373.7V643.2C605.1 665.5 587 683.7 564.6 683.7H206.7C184.4 683.7 166.2 665.6 166.2 643.2V373.7C166.2 351.3 184.4 333.2 206.7 333.2Z" fill="#ff1100" opacity="1" stroke-width="4" stroke="none"></path></g><g><path d="M1139.6 218.7H1371.3C1393.6 218.7 1382.1 235.8 1382.1 258.2L1411.8 466.6V490.9C1411.8 513.2 1393.7 531.4 1371.3 531.4H1139.6C1117.3 531.4 1099.1 513.3 1099.1 490.9V466.6L1142.5 271.7C1142.5 249.3 1117.2 218.7 1139.6 218.7Z" fill="#182f38" opacity="1" stroke-width="4" stroke="none"></path><path d="M1139.1 194.4H1370.8C1393.1 194.4 1411.3 212.5 1411.3 234.9V466.6C1411.3 488.9 1393.2 507.1 1370.8 507.1H1139.1C1116.8 507.1 1098.6 489 1098.6 466.6V234.8C1098.7 212.5 1116.8 194.4 1139.1 194.4Z" fill="#ff1100" opacity="1" stroke-width="4" stroke="none"></path></g><g><path d="M494.03 424.3C427.19 424.3 449.21 505.3 384.72 505.3 350.91 505.3 363.49 564.28 334.39 564.28 300.58 564.28 314.73 478.56 275.41 478.56" stroke="#ffffff" stroke-width="4" opacity="1" fill="none"></path><path d="M494.03 429.8V633.48" stroke="#ffffff" stroke-width="4" opacity="1" fill="none"></path><path d="M384.57 508.44V633.48" stroke="#ffffff" stroke-width="4" opacity="1" fill="none"></path><path d="M275.02 486.42V633.48" stroke="#ffffff" stroke-width="4" opacity="1" fill="none"></path><path d="M266.76 632.7H501.9" stroke="#ffffff" stroke-width="4" stroke-linecap="round" stroke-linejoin="round" opacity="1" fill="none"></path><path d="M275.02 491.93C282.41 491.93 288.39 485.94 288.39 478.56 288.39 471.18 282.41 465.19 275.02 465.19 267.64 465.19 261.65 471.18 261.65 478.56 261.65 485.94 267.64 491.93 275.02 491.93Z" fill="#ffffff" opacity="1" stroke-width="4" stroke="none"></path><path d="M384.72 518.67C392.11 518.67 398.09 512.68 398.09 505.3 398.09 497.91 392.11 491.93 384.72 491.93 377.34 491.93 371.36 497.91 371.36 505.3 371.36 512.68 377.34 518.67 384.72 518.67Z" fill="#ffffff" opacity="1" stroke-width="4" stroke="none"></path><path d="M494.03 437.67C501.42 437.67 507.4 431.68 507.4 424.3 507.4 416.91 501.42 410.93 494.03 410.93 486.65 410.93 480.67 416.91 480.67 424.3 480.67 431.68 486.65 437.67 494.03 437.67Z" fill="#ffffff" opacity="1" stroke-width="4" stroke="none"></path></g><g><path d="M1253.2 249.3C1213.5 250.3 1182.2 283.2 1183.1 322.8 1183.6 344.4 1193.9 364.7 1211 377.9 1222.1 386.4 1228.6 399.5 1228.7 413.4L1232.5 421.4H1274.9L1281.2 413.4C1281.2 399.6 1287.6 386.5 1298.6 378.1 1330.1 354 1336.2 309 1312.1 277.4 1298.1 259.2 1276.2 248.7 1253.2 249.3Z" fill="#ffffff" opacity="1" stroke-width="4" stroke="none"></path><path d="M1228.7 413.5V431.8C1228.7 446.3 1240.4 458 1254.9 458 1269.4 458 1281.1 446.3 1281.1 431.8V413.5H1228.7Z" fill="#dbcc06" opacity="1" stroke-width="4" stroke="none"></path><path d="M1228.7 413.4H1281.2" stroke="#000000" stroke-width="4" stroke-linecap="round" stroke-linejoin="round" opacity="1" fill="none"></path><path d="M1228.7 427.9H1281.1" stroke="#000000" stroke-width="4" stroke-linecap="round" stroke-linejoin="round" opacity="1" fill="none"></path><path d="M1246.1 413.4V392.5C1246.1 378.5 1240.6 365 1230.7 355.1 1223.2 347.6 1219.1 337.5 1219.1 326.9 1219.1 319.4 1225.2 313.4 1232.6 313.4 1240.1 313.4 1246.1 319.5 1246.1 326.9V334.7C1246.1 339.5 1250 343.4 1254.8 343.4 1259.6 343.4 1263.5 339.5 1263.5 334.7V326.9C1263.5 319.4 1269.6 313.4 1277 313.4H1277.2C1284.7 313.4 1290.7 319.5 1290.7 326.9 1290.7 337.5 1286.5 347.7 1279 355.2 1269.1 365.2 1263.5 378.6 1263.5 392.7L1263.6 413.5" stroke="#353535" stroke-width="4" stroke-linecap="round" stroke-linejoin="round" opacity="1" fill="none"></path></g><g><path d="M315.25 295.32V194.08C315.25 183.5 323.78 174.98 334.36 174.98H634.5C645.08 174.98 653.6 183.5 653.6 194.08V353.4" stroke="#182f38" stroke-width="4" stroke-linecap="round" stroke-linejoin="round" opacity="1" fill="none"></path><path d="M314.87 309.48C330.6 309.48 343.34 296.74 343.34 281.01 343.34 265.29 330.6 252.54 314.87 252.54 299.15 252.54 286.4 265.29 286.4 281.01 286.4 296.74 299.15 309.48 314.87 309.48Z" fill="#182f38" opacity="1" stroke-width="4" stroke="none"></path><path d="M569.8 184.57C574.88 184.57 579.01 180.44 579.01 175.36 579.01 170.27 574.88 166.15 569.8 166.15 564.71 166.15 560.59 170.27 560.59 175.36 560.59 180.44 564.71 184.57 569.8 184.57Z" fill="#182f38" opacity="1" stroke-width="4" stroke="none"></path></g><g><path d="M781.36 741.99L833.8 572.06" stroke="#000000" stroke-width="4" stroke-linecap="round" stroke-linejoin="round" opacity="1" fill="none"></path><path d="M865.97 564.43L943.49 741.99" stroke="#000000" stroke-width="4" stroke-linecap="round" stroke-linejoin="round" opacity="1" fill="none"></path><path d="M800.91 679.67H915.79" stroke="#000000" stroke-width="4" stroke-linecap="round" stroke-linejoin="round" opacity="1" fill="none"></path><path d="M902.46 577.33C933.08 531.13 930.5 475.53 896.7 453.13 862.91 430.74 810.69 450.03 780.08 496.23 749.47 542.42 752.05 598.02 785.85 620.42 819.64 642.82 871.85 623.52 902.46 577.33Z" fill="#dbcc06" opacity="1" stroke-width="4" stroke="none"></path><path d="M886.97 567.06C909.83 532.55 907.91 491.02 882.68 474.29 857.44 457.57 818.44 471.98 795.58 506.5 772.71 541 774.63 582.54 799.87 599.26 825.11 615.98 864.1 601.56 886.97 567.06Z" fill="#000000" opacity="1" stroke-width="4" stroke="none"></path><path d="M871.92 557.08C887.24 533.96 885.95 506.12 869.02 494.9 852.1 483.69 825.95 493.34 810.63 516.46 795.3 539.59 796.6 567.43 813.53 578.65 830.45 589.86 856.6 580.21 871.92 557.08Z" fill="#ffc930" opacity="1" stroke-width="4" stroke="none"></path><path d="M858.11 547.93C866.53 535.23 865.81 519.94 856.51 513.78 847.21 507.62 832.85 512.91 824.44 525.62 816.02 538.32 816.73 553.61 826.03 559.77 835.34 565.94 849.7 560.63 858.11 547.93Z" fill="#ff1100" opacity="1" stroke-width="4" stroke="none"></path><path d="M847.03 540.6C849.9 536.26 849.65 531.04 846.47 528.93 843.29 526.82 838.38 528.63 835.51 532.96 832.64 537.29 832.89 542.51 836.07 544.62 839.26 546.73 844.16 544.93 847.03 540.6Z" fill="#b9b5b5" opacity="1" stroke-width="4" stroke="none"></path></g><g><path d="M453.3 137.9H625.8C648.1 137.9 622 162.9 622 185.3L666 325.4C666 347.7 657.5 391.3 635.1 391.3H436.4C414.1 391.3 412.8 353.1 412.8 330.7L438.7 183.1C438.7 161 430.9 137.9 453.3 137.9Z" fill="#182f38" opacity="1" stroke-width="4" stroke="none"></path><path d="M453.3 113.6H625.8C648.1 113.6 666.3 131.7 666.3 154.1V326.6C666.3 348.9 648.2 367.1 625.8 367.1H453.3C431 367.1 412.8 349 412.8 326.6V154.1C412.8 131.7 430.9 113.6 453.3 113.6Z" fill="#11ff01" opacity="1" stroke-width="4" stroke="none"></path></g><g><path d="M601.87 233.3L477.35 187.27C477.19 187.27 477.03 187.27 477.19 187.43L519.75 313.21C519.75 313.37 519.91 313.37 520.06 313.21L535.98 276.8C535.98 276.64 536.14 276.64 536.3 276.8L565.14 306.12H565.3L593.83 278.38V278.22L565.14 248.74C565.14 248.59 565.14 248.59 565.14 248.43L601.71 233.61C601.87 233.61 601.87 233.3 601.87 233.3Z" fill="#ffffff" opacity="1" stroke-width="4" stroke="none"></path></g><g><path d="M334.8 835.4H507.3C529.6 835.4 533.2 848.7 533.2 871.1L547.8 1024.2V1048.4C547.8 1070.7 529.7 1088.9 507.3 1088.9H334.8C312.5 1088.9 294.3 1070.8 294.3 1048.4V1024.2L319.1 876.6C319.1 854.2 312.4 835.4 334.8 835.4Z" fill="#182f38" opacity="1" stroke-width="4" stroke="none"></path><path d="M334.8 811.2H507.3C529.6 811.2 547.8 829.3 547.8 851.7V1024.2C547.8 1046.5 529.7 1064.7 507.3 1064.7H334.8C312.5 1064.7 294.3 1046.6 294.3 1024.2V851.6C294.3 829.3 312.4 811.2 334.8 811.2Z" fill="#11ff01" opacity="1" stroke-width="4" stroke="none"></path></g><g><path d="M378.21 1006.91H463.44C469.53 1006.91 474.5 1001.95 474.5 995.85V883.39C474.5 877.29 469.53 872.33 463.44 872.33H414.89C414.16 872.33 413.51 872.73 413.26 873.38L399.19 906.89 368.62 918.27C367.72 918.6 367.15 919.49 367.15 920.47V995.93C367.15 1002.03 372.11 1006.91 378.21 1006.91Z" fill="#ffffff" opacity="1" stroke-width="4" stroke="none"></path><path d="M368.05 918.6C367.89 918.76 368.05 919.17 368.37 919.17L402.85 918.92C408.95 918.92 413.91 913.96 413.91 907.86L413.59 872.9 368.05 918.6Z" fill="#dbcc06" opacity="1" stroke-width="4" stroke="none"></path></g></svg>